<svg width="31" height="34" viewBox="0 0 31 34" fill="none" xmlns="http://www.w3.org/2000/svg">
<path d="M13.2571 28.3966C16.1984 28.3959 19.0551 27.3512 21.3721 25.4287L28.6568 33.1578L31 30.6717L23.7152 22.9426C25.5281 20.484 26.5134 17.4524 26.5141 14.3308C26.5141 6.57537 20.5667 0.265137 13.2571 0.265137C5.94745 0.265137 0 6.57537 0 14.3308C0 22.0863 5.94745 28.3966 13.2571 28.3966ZM13.2571 3.78156C18.7405 3.78156 23.1999 8.51292 23.1999 14.3308C23.1999 20.1488 18.7405 24.8801 13.2571 24.8801C7.77361 24.8801 3.31427 20.1488 3.31427 14.3308C3.31427 8.51292 7.77361 3.78156 13.2571 3.78156Z" fill="#192020"/>
</svg>
