<svg width="74" height="74" viewBox="0 0 74 74" fill="none" xmlns="http://www.w3.org/2000/svg">
<path d="M74 37C74 46.813 70.1018 56.2241 63.163 63.163C56.2241 70.1018 46.813 74 37 74C27.187 74 17.7759 70.1018 10.837 63.163C3.8982 56.2241 0 46.813 0 37C0 27.187 3.8982 17.7759 10.837 10.837C17.7759 3.8982 27.187 0 37 0C46.813 0 56.2241 3.8982 63.163 10.837C70.1018 17.7759 74 27.187 74 37ZM39.3125 20.8125C39.3125 20.1992 39.0689 19.611 38.6352 19.1773C38.2015 18.7436 37.6133 18.5 37 18.5C36.3867 18.5 35.7985 18.7436 35.3648 19.1773C34.9311 19.611 34.6875 20.1992 34.6875 20.8125V34.6875H20.8125C20.1992 34.6875 19.611 34.9311 19.1773 35.3648C18.7436 35.7985 18.5 36.3867 18.5 37C18.5 37.6133 18.7436 38.2015 19.1773 38.6352C19.611 39.0689 20.1992 39.3125 20.8125 39.3125H34.6875V53.1875C34.6875 53.8008 34.9311 54.389 35.3648 54.8227C35.7985 55.2564 36.3867 55.5 37 55.5C37.6133 55.5 38.2015 55.2564 38.6352 54.8227C39.0689 54.389 39.3125 53.8008 39.3125 53.1875V39.3125H53.1875C53.8008 39.3125 54.389 39.0689 54.8227 38.6352C55.2564 38.2015 55.5 37.6133 55.5 37C55.5 36.3867 55.2564 35.7985 54.8227 35.3648C54.389 34.9311 53.8008 34.6875 53.1875 34.6875H39.3125V20.8125Z" fill="white"/>
</svg>
