<svg width="452" height="195" viewBox="0 0 452 195" fill="none" xmlns="http://www.w3.org/2000/svg">
<path d="M185.153 2.13774C165.464 2.77141 142.418 3.76717 133.89 4.3103C89.9749 7.38812 89.612 7.47865 87.8881 11.2807C86.4363 14.449 88.3417 33.8211 93.6042 68.6727C94.6023 75.3715 96.054 84.967 96.7799 89.9458C100.228 113.391 104.583 132.673 107.486 137.199C109.664 140.458 112.204 141.816 117.558 142.178C123.092 142.54 155.484 141.182 173.358 139.734C182.069 139.01 194.953 138.195 201.939 137.923C208.925 137.652 219.723 137.018 225.983 136.475C232.244 136.022 245.128 135.208 254.564 134.755C264.091 134.212 276.249 133.216 281.693 132.492C291.492 131.225 291.674 131.225 292.944 133.126C294.123 134.755 294.94 134.936 300.021 134.483C305.011 134.121 305.919 134.302 307.37 135.932C309.003 137.742 308.913 137.742 306.735 137.199C304.285 136.566 283.508 137.652 258.647 139.734C249.937 140.549 233.968 141.544 223.261 141.997C212.555 142.45 200.487 143.083 196.495 143.355C192.503 143.626 178.802 144.26 166.1 144.713C140.422 145.708 120.461 147.609 114.654 149.782C110.753 151.23 109.664 153.403 111.479 156.119C112.114 157.114 121.278 163.723 122.004 163.723C122.276 163.723 127.901 166.348 134.525 169.516C174.084 188.436 172.542 187.983 193.138 184.634C203.935 182.914 216.91 181.013 234.149 178.84C242.043 177.844 244.402 177.844 247.668 178.84C254.473 180.832 268.083 180.017 315.173 174.948C322.523 174.133 333.411 173.137 339.217 172.775C345.024 172.413 356.457 171.508 364.532 170.874C375.783 169.969 379.684 169.969 381.499 170.784C383.858 171.87 384.674 174.857 382.951 175.943C381.317 176.939 349.289 180.107 318.984 182.28C308.005 183.095 292.127 184.272 283.598 184.996C275.16 185.72 264.544 186.535 260.008 186.806C242.496 187.893 213.008 190.065 197.856 191.423C172.632 193.596 170.636 193.505 161.381 189.703C153.488 186.354 135.886 177.573 129.807 173.861C128.083 172.775 125.814 171.508 124.816 170.965C122.366 169.788 112.84 163.723 101.952 156.39C91.3359 149.148 90.7008 148.877 84.8032 147.519C75.8206 145.346 70.7396 148.605 57.2204 164.809C51.595 171.508 46.2418 175.491 42.6125 175.491C34.628 175.491 27.1879 167.887 21.4718 153.765C14.939 137.923 13.3059 135.66 7.77116 135.66C5.68431 135.66 3.23453 136.294 2.23647 137.109C0.603288 138.376 0.603288 138.467 2.14574 138.014C10.8561 135.298 12.58 136.384 17.2981 147.247C23.5586 162.093 25.6455 165.805 30.908 171.055C36.2612 176.487 39.4368 177.663 45.153 176.396C48.5101 175.581 53.5911 171.508 57.8556 165.986C59.398 163.994 63.0273 159.83 65.84 156.752C76.9094 144.441 83.2607 144.984 105.309 159.921C112.567 164.809 123.183 171.508 128.899 174.767C141.874 182.28 162.833 192.328 168.096 193.596C172.179 194.501 183.792 193.958 214.642 191.242C223.17 190.518 236.417 189.522 244.13 189.069C261.369 188.074 277.882 186.806 306.281 184.543C318.258 183.638 336.677 182.19 347.111 181.375C368.524 179.745 382.678 177.754 384.493 176.215C386.398 174.676 385.491 171.689 382.769 170.15C380.682 168.973 378.051 168.973 362.354 169.878C342.756 171.146 320.617 172.956 300.838 175.129C274.797 177.844 248.938 179.112 249.937 177.482C250.209 177.03 255.471 176.396 261.55 176.124C276.884 175.4 292.127 173.047 294.94 171.055C298.388 168.611 298.297 166.076 294.668 163.361C292.218 161.46 290.313 160.916 283.961 160.464C273.89 159.74 253.384 161.46 245.491 163.632C236.69 166.076 235.056 168.701 239.139 173.499C241.771 176.668 241.408 177.301 236.508 177.301C234.512 177.301 227.526 178.116 221.084 179.112C206.748 181.284 192.775 183.276 182.704 184.543C172.814 185.901 171.453 185.448 148.407 174.586C145.413 173.137 139.333 170.331 134.797 168.249C119.826 161.279 111.751 156.028 111.66 153.222C111.569 150.506 122.276 148.515 142.418 147.428C151.219 146.885 165.102 146.161 173.358 145.618C181.615 145.165 194.862 144.532 202.846 144.26C221.446 143.626 256.651 141.454 275.977 139.734C284.233 139.01 295.121 138.376 300.202 138.376H309.457L314.629 142.359C317.532 144.532 324.972 148.877 331.233 151.955C337.493 155.032 343.391 158.02 344.298 158.563C345.297 159.015 347.111 159.74 348.381 160.102C349.652 160.554 354.188 162.093 358.453 163.632C369.794 167.706 375.692 167.163 371.246 162.455C368.796 159.921 357.182 154.037 344.843 149.239C342.121 148.243 339.036 146.976 338.038 146.523C334.227 144.713 317.895 139.1 314.629 138.376C311.363 137.742 307.642 135.298 307.642 133.759C307.642 132.311 315.445 130.953 321.252 131.406C327.967 131.858 332.05 133.759 338.673 139.734C350.74 150.325 357.545 150.144 365.53 138.919C368.796 134.393 369.341 133.397 373.151 126.698C375.873 121.81 380.41 115.564 382.497 113.754C385.945 110.766 391.661 112.577 395.472 117.737C396.107 118.551 397.105 119.819 397.831 120.452C398.466 121.086 401.006 125.16 403.365 129.324C413.527 146.976 417.52 151.411 421.512 149.239C423.962 147.972 427.772 142.269 431.946 133.759C437.118 123.168 441.564 120.09 447.371 123.44C450.002 124.979 451 125.069 451 123.983C451 122.806 445.919 121.177 442.38 121.177C437.934 121.177 435.031 124.526 429.769 135.208C425.686 143.717 422.147 148.334 419.788 148.334C416.885 148.334 412.076 142.721 407.085 133.397C402.912 125.522 398.919 119.547 395.744 116.198C387.941 107.87 383.313 108.865 375.601 120.543C369.976 129.052 369.068 130.591 367.254 134.302C364.895 139.1 359.451 144.622 355.912 145.708C353.1 146.523 351.92 146.342 348.472 144.894C346.204 143.898 343.391 142.178 342.121 141.001C332.503 132.039 327.059 129.776 316.897 130.5C312.996 130.772 309.003 131.225 307.915 131.587C306.1 132.13 305.737 131.587 303.65 124.797C302.38 120.814 301.291 116.379 301.291 115.021C301.291 113.663 300.656 108.503 299.93 103.524C299.204 98.5456 297.753 87.9543 296.755 79.9882C293.035 50.568 292.127 44.4124 290.313 32.9158C287.228 13.6343 284.687 7.47864 278.608 4.40083C271.349 0.689362 249.755 0.14621 185.153 2.13774ZM272.075 3.94821C279.062 5.57764 281.602 7.20708 283.871 11.5522C286.502 16.6216 290.313 38.1662 294.486 72.7463C295.303 79.1735 296.573 88.4069 297.208 93.1141C297.934 97.8214 298.932 105.154 299.386 109.408C300.384 118.099 302.38 127.151 303.922 130.048C304.83 131.768 304.648 132.039 301.563 132.854C297.117 134.121 297.117 134.121 294.486 132.401C292.399 131.044 292.399 130.953 293.851 128.418C295.212 126.065 295.212 125.25 293.76 117.827C291.492 106.059 288.952 92.0279 287.318 82.2513C278.789 29.657 277.791 24.8592 274.888 21.2383C270.805 16.0784 269.172 15.7163 245.944 15.4447C224.35 15.0826 165.918 16.4405 131.258 17.9794C102.315 19.3373 101.135 20.2425 101.407 39.5241C101.498 46.2228 102.405 57.6288 103.403 64.9612C104.401 72.2031 105.853 82.885 106.67 88.588C107.486 94.2909 108.666 101.804 109.392 105.335C110.118 108.775 110.934 113.301 111.297 115.292C112.204 121.358 114.745 128.599 116.015 129.143C118.011 129.867 120.824 125.793 124.726 116.65C125.451 114.93 126.903 111.49 127.901 109.046C128.99 106.602 129.807 104.158 129.807 103.615C129.807 103.072 130.532 101.171 131.53 99.4508C132.438 97.7309 133.527 94.9246 133.799 93.3857C134.162 91.7563 134.888 90.2174 135.341 89.9458C135.795 89.5837 136.158 88.6785 136.158 87.8638C136.249 87.049 136.974 84.6954 137.972 82.7039C138.971 80.7124 139.696 78.7209 139.787 78.3588C139.787 77.9061 140.332 76.2767 141.057 74.7378C141.693 73.1084 143.053 69.759 144.142 67.3149C149.314 54.551 151.219 50.2964 155.393 42.4208C157.843 37.6231 160.656 33.2779 161.654 32.6443C163.287 31.558 163.378 31.8295 163.378 36.7178C163.378 39.6146 161.291 51.9258 158.75 64.1465C150.675 103.434 150.221 114.387 156.482 112.486C161.381 111.038 168.64 101.714 185.607 75.0094C200.941 51.0206 200.397 51.7448 206.203 45.7702C211.466 40.2483 213.643 40.3388 214.006 45.8607C214.279 49.6627 210.74 62.9697 206.929 72.2937C199.58 90.5795 196.041 101.352 196.041 105.697C196.041 109.771 197.312 110.585 201.122 108.956C203.481 107.96 205.024 106.602 211.647 99.3603C213.734 97.1877 219.904 87.9543 221.719 84.5144C223.08 81.8892 227.253 73.8326 230.248 68.2201C233.695 61.7929 239.684 53.2837 241.771 51.9258C245.4 49.4817 249.483 50.4774 251.479 54.1889C254.655 60.073 253.657 68.0391 247.124 88.9501C243.313 101.442 242.587 105.787 244.22 105.787C244.946 105.787 249.755 101.352 255.018 95.9204C268.083 82.5229 272.438 79.9882 275.342 84.2428C277.247 86.9585 277.156 92.9331 274.979 101.985C273.981 106.15 273.164 112.124 273.164 115.202C273.164 120.452 273.436 121.086 275.523 122.534C277.247 123.621 279.334 123.983 283.417 123.711L288.952 123.44L289.677 126.517C290.131 128.147 290.313 129.686 290.131 129.867C289.224 130.863 251.207 134.031 227.344 135.208C212.464 135.932 173.812 138.285 151.129 139.734C140.15 140.458 127.357 141.092 122.639 141.092C111.388 141.092 109.029 139.734 106.488 131.858C103.403 122.444 99.2296 100.266 95.7818 75.0094C94.9652 69.3064 93.5135 59.0772 92.6062 52.3784C90.4286 37.3515 88.0695 17.4363 88.0695 14.1774C88.0695 10.1038 91.0637 8.92702 105.49 7.56917C112.567 6.9355 124.181 6.12079 131.168 5.84921C138.154 5.48712 158.206 4.67241 175.627 3.94821C230.883 1.50407 261.369 1.50407 272.075 3.94821ZM270.714 19.1562C275.614 22.3246 276.521 25.3118 281.239 53.7363C282.328 60.1635 283.961 69.9401 284.959 75.462C285.867 80.8934 287.318 89.6742 288.135 94.9246C289.042 100.175 290.494 108.141 291.492 112.577C292.49 117.103 293.125 122.534 292.944 124.797L292.672 128.871L290.948 125.431L289.133 122.082H282.51C273.346 122.082 273.073 121.448 275.705 105.516C278.699 87.8638 278.245 82.885 273.618 81.7081C269.626 80.7124 265.905 83.1565 255.38 93.9289C249.664 99.6319 244.855 104.158 244.674 103.886C244.22 103.434 248.122 89.5837 251.57 79.5356C253.203 74.8283 253.566 71.5695 253.657 63.4223V53.1026L250.935 50.9301C249.483 49.7533 247.396 48.7575 246.398 48.7575C242.043 48.7575 235.329 55.7278 230.248 65.5044C224.441 76.8199 222.898 79.6261 220.448 84.0618C217.273 89.6742 207.837 103.072 207.02 103.072C206.748 103.072 205.115 104.339 203.391 105.787C198.219 110.404 196.314 109.137 197.765 102.167C198.673 97.6403 204.479 80.7124 206.385 76.9104C207.02 75.6431 209.107 70.0306 211.012 64.5992C213.825 56.6331 214.551 53.2837 214.551 47.8522L214.642 41.063L212.01 40.7914C209.923 40.5198 208.653 41.3345 204.752 45.3176C200.759 49.4817 192.412 60.7066 192.412 61.8834C192.412 62.155 191.051 64.3276 189.509 66.6812C185.698 72.2031 184.609 73.9231 182.794 77.2725C177.895 86.0533 166.735 101.623 161.835 106.602C157.026 111.4 155.847 112.124 154.758 111.219C151.945 108.865 152.853 100.084 159.022 70.4832C163.378 49.2101 165.464 35.6315 164.829 33.0969C164.013 29.838 161.291 29.9285 158.932 33.2779C156.3 36.8989 148.679 52.3784 145.685 60.073C142.691 67.677 141.148 71.479 138.789 76.6388C137.882 78.7209 137.065 80.8934 137.065 81.4366C137.065 81.9797 136.521 83.6997 135.795 85.2386C135.069 86.868 133.436 90.9416 132.075 94.472C130.805 97.9119 129.353 101.623 128.899 102.619C128.446 103.615 126.812 107.688 125.27 111.672C121.822 120.633 117.285 128.69 116.197 127.966C112.749 125.793 102.587 57.0857 102.587 36.0842C102.587 23.2298 104.401 21.6004 121.641 19.6994C132.438 18.5226 195.406 17.2552 236.871 17.4363C265.18 17.5268 268.537 17.7078 270.714 19.1562ZM318.984 141.001C324.337 142.631 328.965 144.351 345.297 150.868C356.003 155.123 368.706 161.369 370.157 163.18C371.246 164.447 370.974 164.628 367.617 164.628C364.169 164.628 360.449 163.451 351.376 159.559C349.742 158.834 348.018 158.291 347.565 158.291C344.661 158.291 313.086 141.273 313.086 139.734C313.086 139.1 312.814 139.1 318.984 141.001ZM286.411 162.003C293.035 163.18 295.847 164.899 295.847 167.796C295.847 171.236 291.129 172.232 259.645 175.038L243.857 176.487L241.317 174.042C235.51 168.52 239.049 165.171 252.114 163.632C256.469 163.089 262.639 162.365 265.905 162.003C274.707 160.916 280.423 160.916 286.411 162.003Z" fill="white" stroke="white" stroke-width="1.05"/>
</svg>
