<svg width="425" height="290" viewBox="0 0 425 290" fill="none" xmlns="http://www.w3.org/2000/svg">
<path d="M235.382 0.402496C229.352 1.84958 227.986 5.30649 228.227 17.8479C228.307 23.8774 228.066 27.1735 227.423 27.8167C225.976 29.2637 225.494 24.8421 225.735 12.8635L225.976 2.41232L220.67 2.49274C216.087 2.49274 214.962 2.89468 211.585 5.14572C205.395 9.48697 193.738 25.3245 189.879 34.9717C187.548 40.5992 185.297 50.97 183.609 63.5113C182.483 72.435 182.081 123.244 183.207 128.389C184.171 132.891 187.307 136.267 190.683 136.267C194.22 136.267 197.758 132.73 201.456 125.334C203.868 120.51 204.27 119.063 204.189 114.159C204.189 109.657 203.627 107.487 201.697 103.306C198.321 95.9099 195.989 88.996 195.024 83.1273C193.979 76.2135 193.979 62.8682 195.185 56.9995C196.471 50.568 200.893 46.1463 210.701 41.4835C214.721 39.5541 219.866 36.7403 222.197 35.2128C224.529 33.605 226.539 32.4795 226.619 32.6403C226.78 32.8011 227.423 33.9265 228.146 35.0521L229.513 37.2227L224.931 38.107C221.554 38.7502 217.937 40.5188 211.103 44.8601C198.803 52.7386 196.632 56.0347 196.632 67.2898C196.632 73.8017 199.285 88.2725 201.617 93.9804C202.501 96.2314 203.787 99.8492 204.43 102.1C206.279 108.13 209.334 113.757 212.55 117.134C215.203 119.948 215.364 120.43 215.203 124.932C215.042 128.952 215.525 131.122 218.339 138.197L221.715 146.638L220.027 154.436C218.258 162.797 216.007 168.023 214.238 168.023C213.595 168.023 212.791 166.334 212.148 163.682C210.621 156.768 208.852 153.552 204.913 150.658C202.903 149.291 200.25 147.04 198.964 145.834L196.552 143.503L192.613 145.513C187.226 148.246 183.207 148.809 179.508 147.201C175.81 145.673 175.73 144.709 179.187 143.02C185.056 140.046 185.94 137.473 182.724 131.846C180.473 127.906 178.222 127.424 172.595 129.916C167.61 132.007 161.902 138.036 158.285 144.789C155.632 149.773 151.451 161.913 150.004 168.987L149.12 173.168L144.939 173.57C142.608 173.811 131.353 174.213 119.857 174.454C97.266 174.937 80.7854 176.062 75.6402 177.348C70.9774 178.554 69.6107 180.162 69.6107 184.021C69.6107 189.086 74.7559 219.796 80.5442 249.542C83.5992 265.218 85.5286 269.64 89.8698 271.409C93.4071 272.856 114.551 272.936 151.612 271.73C167.771 271.168 192.452 270.444 206.521 270.122L232.005 269.56V271.248C232.005 272.132 232.97 273.499 234.176 274.303C236.105 275.589 238.115 275.75 250.496 275.589C258.214 275.509 265.851 275.268 267.378 275.026C268.906 274.866 274.373 274.464 279.438 274.142C296.401 273.258 313.203 270.524 318.268 268.032C320.921 266.665 321.322 266.585 321.724 267.711C322.046 268.354 322.046 269.801 321.724 270.766C320.84 274.544 312.72 276.634 289.085 279.368C280.885 280.252 273.649 281.217 273.006 281.377C271.398 281.779 255.802 283.066 227.182 284.995C189.477 287.568 157.963 288.372 92.5228 288.452C27.163 288.613 27.0826 288.613 12.6922 284.513C9.23524 283.468 6.90383 281.699 6.90383 279.93C6.90383 279.77 10.4411 279.368 14.702 279.126C20.008 278.724 24.3492 277.921 27.8061 276.634C32.7101 274.866 49.9947 271.891 68.3244 269.72C77.0069 268.675 80.8658 267.228 80.8658 264.977C80.8658 264.093 79.9011 262.726 78.7755 262.003C76.9265 260.797 75.6402 260.716 66.1538 261.52C36.6494 264.093 10.2 270.846 5.93911 276.875C5.29597 277.76 3.92928 278.564 2.88416 278.805L0.874329 279.126L2.96456 279.287C4.33125 279.368 5.37636 280.011 5.93911 281.458C7.3058 284.432 12.451 286.362 24.2688 288.291C34.1572 289.98 37.0514 290.06 82.8756 289.98C131.433 289.899 144.377 289.658 189.397 288.131C235.302 286.603 301.787 280.493 315.213 276.554C321.403 274.785 323.252 273.017 323.091 269.077L322.93 265.781L328.719 263.932C337.321 261.279 339.17 259.189 342.948 248.014C344.637 242.949 346.807 237.161 347.691 235.151C348.656 232.981 349.38 229.845 349.38 227.353C349.38 223.173 349.38 223.173 351.631 223.494C356.535 224.218 404.771 224.7 417.795 224.137C429.854 223.575 426.236 223.414 391.184 223.092C364.976 222.851 350.103 222.369 349.139 221.806C347.772 221.002 344.395 216.5 340.215 209.827C337.16 205.004 335.874 198.813 334.909 184.343C333.221 159.501 329.925 143.824 323.413 131.042C316.338 116.893 305.967 110.702 297.204 115.204C291.577 118.018 291.255 119.144 290.532 137.232C290.21 146.236 289.808 154.597 289.647 155.883C289.004 160.627 290.612 221.163 291.416 223.253C292.702 226.549 295.436 226.871 302.189 224.298C316.418 218.992 319.875 218.108 325.262 218.429C328.156 218.59 334.346 219.796 339.089 221.082C347.531 223.253 347.772 223.414 348.254 225.906C348.495 227.514 348.093 230.006 347.048 232.82C346.164 235.232 343.993 241.342 342.144 246.406C337.723 258.787 336.678 259.993 328.558 262.646C322.609 264.575 321.805 264.656 319.795 263.611C316.981 262.163 313.765 262.163 307.334 263.691C296.642 266.183 281.93 267.389 257.972 267.871L233.613 268.354V263.209C233.613 256.938 231.282 237.081 227.986 215.053C224.288 189.649 222.278 179.76 220.429 177.429L218.821 175.419L199.124 175.982C188.271 176.223 172.755 176.705 164.716 177.027C151.773 177.429 150.004 177.348 150.004 176.303C150.004 175.339 151.371 174.937 156.677 174.535C167.449 173.811 219.544 173.007 221.393 173.57C223.805 174.374 225.092 178.956 228.307 198.974C229.915 208.461 232.327 223.092 233.694 231.534C235.221 240.94 236.266 250.506 236.427 256.375C236.588 261.601 236.99 266.183 237.392 266.585C238.196 267.389 249.933 264.736 255.963 262.405C258.374 261.36 260.143 260.154 260.143 259.51C260.143 258.465 258.776 258.385 250.496 258.867C241.894 259.35 240.849 259.269 240.849 258.144C240.849 256.134 256.284 256.295 261.51 258.385C265.047 259.752 267.62 259.832 292.702 259.671C307.736 259.51 320.277 259.43 320.599 259.35C320.921 259.269 321.885 258.465 322.85 257.501C324.86 255.33 325.021 249.622 323.252 242.869C321.805 237.483 319.313 233.865 314.811 230.73L311.595 228.479L302.269 229.443C297.124 229.926 292.3 230.649 291.577 231.051C288.281 232.739 246.315 236.84 245.029 235.634C244.306 234.83 246.557 216.178 248.968 203.959C251.3 191.578 251.38 191.176 250.174 184.503C249.531 180.725 248.808 175.821 248.566 173.57C248.004 169.229 249.29 158.054 250.415 156.928C251.782 155.562 253.631 157.491 255.963 162.636C259.178 169.631 260.947 177.509 260.947 184.745C260.947 189.649 260.465 191.578 258.053 196.964C252.908 208.541 251.541 215.374 254.114 216.339C256.043 217.143 259.902 215.133 262.153 212.159C263.278 210.631 264.725 209.425 265.208 209.425C265.771 209.425 267.378 208.38 268.745 207.094C270.755 205.325 271.881 202.833 274.212 195.276C275.9 189.97 278.875 181.529 280.885 176.464C285.789 163.842 286.271 159.34 285.226 138.518C284.261 118.822 284.181 119.063 290.934 115.687C299.134 111.587 300.34 108.773 297.044 101.135C295.034 96.553 291.175 84.8156 290.291 80.7959C288.442 71.7115 276.785 35.6952 272.926 27.1735C265.529 10.6125 247.119 -2.49167 235.382 0.402496ZM243.823 2.01038C253.631 4.26138 265.449 14.9537 270.996 26.5304C275.016 34.6501 282.332 56.5171 287.477 75.1684C289.326 82.0018 292.461 92.051 294.391 97.4373C296.32 102.904 297.928 107.808 297.928 108.451C297.928 109.979 293.908 112.953 288.924 115.204C283.296 117.777 283.136 118.259 283.94 134.981C285.145 159.26 284.422 164.887 278.312 179.278C277.186 181.931 275.337 187.558 274.132 191.739C271.479 201.386 268.665 206.612 265.771 207.817C264.484 208.38 262.153 210.149 260.545 211.918C258.616 214.008 257.008 215.053 255.561 215.053C253.631 215.053 253.551 214.892 254.033 211.918C254.274 210.229 256.204 204.843 258.294 200.1C263.198 188.684 263.6 183.941 260.625 172.364C257.41 160.064 253.068 153.07 250.094 155.562C247.28 157.893 246.396 170.837 248.486 181.529C250.094 190.131 250.014 193.668 247.762 203.637C246.717 208.38 245.431 216.42 244.949 221.484C243.502 235.875 243.502 235.955 241.17 235.955C240.045 235.955 238.437 236.277 237.633 236.759C235.864 237.724 235.543 236.679 232.005 213.445C227.745 186.031 225.654 175.982 223.484 173.65C221.715 171.801 221.152 171.64 213.756 171.64C209.415 171.64 193.658 172.042 178.705 172.525C163.751 173.007 151.29 173.248 151.049 173.007C150.004 171.882 155.31 153.954 158.687 147.201C163.028 138.518 166.967 134.097 172.836 131.122C177.901 128.55 179.991 128.791 181.76 132.248C183.609 135.785 183.287 138.358 180.875 140.046C179.75 140.85 177.901 142.297 176.695 143.262C174.604 144.869 174.604 145.03 175.971 146.558C176.775 147.442 178.946 148.568 180.875 149.13C183.769 149.934 184.895 149.854 188.754 148.487C191.166 147.603 193.899 146.558 194.703 146.075C195.828 145.432 196.873 145.834 199.687 148.246C208.289 155.24 209.174 156.446 210.299 162.154C211.505 168.746 212.791 170.837 214.882 169.55C217.133 168.184 218.982 164.405 220.75 157.572C222.921 149.05 222.841 144.387 220.348 139.483C217.776 134.499 216.007 127.022 216.57 123.485C216.891 121.234 217.213 120.912 218.66 121.395C225.172 123.244 233.131 121.636 240.206 116.973C249.129 111.024 253.631 96.8746 249.772 86.8254C243.341 70.1036 234.819 50.4072 232.809 47.4326C229.754 43.011 226.941 42.0463 224.529 44.5385C222.841 46.2267 222.76 46.9503 222.76 62.1446C222.76 77.1782 222.68 78.1429 220.991 80.7959C219.946 82.3234 218.419 85.2175 217.454 87.147L215.766 90.6843L217.454 93.9804C218.419 95.8295 219.705 98.1609 220.348 99.2864C222.197 102.502 221.795 107.085 219.062 113.114C217.615 116.089 216.248 118.581 215.927 118.581C214.721 118.581 210.138 112.632 208.531 109.014C204.913 100.733 199.768 83.8509 198.964 77.4998C197.758 68.6565 198.401 58.4465 200.33 55.07C202.983 50.6484 220.75 39.7953 227.343 38.6698C230.076 38.1874 230.639 38.4286 233.051 40.76C237.874 45.664 239.16 48.3974 245.592 66.4055C252.988 87.3882 253.953 91.7294 253.551 101.377C253.31 107.728 252.827 109.657 249.37 118.098C245.592 127.344 245.511 127.826 245.833 134.177C246.315 141.895 247.602 144.709 254.435 152.828C260.384 159.983 261.992 163.199 264.163 172.284C266.173 180.966 267.62 182.735 270.031 179.439C272.765 175.901 275.498 168.344 275.981 163.199C276.383 159.099 275.9 156.366 273.167 146.317C270.031 134.499 269.951 133.936 269.549 117.375C268.584 81.5195 264.886 65.4408 253.953 49.2817C248.406 41.0816 245.27 38.5894 239.08 37.4639C236.186 36.9815 233.211 36.5795 232.327 36.5795C231.523 36.5795 229.996 35.3736 228.95 33.8462C227.182 31.2736 227.101 30.952 228.307 28.6206C229.272 26.8519 229.594 23.797 229.594 16.7224C229.594 8.76343 229.835 6.83398 231.121 4.66336C233.211 1.36722 237.231 0.48288 243.823 2.01038ZM224.127 13.989C223.966 20.5009 224.288 25.8068 224.85 27.4951C225.654 29.9873 225.574 30.4696 223.966 32.1579C223.001 33.203 217.615 36.4187 212.068 39.3129C195.748 47.6738 193.497 50.97 192.854 67.129C192.371 79.0273 194.381 89.2372 199.526 101.457C204.43 112.792 204.511 116.008 200.491 124.289C196.552 132.248 194.06 134.82 190.281 134.499C187.789 134.258 187.146 133.775 185.779 131.042C184.412 128.228 184.091 125.736 183.769 111.345C182.805 70.4252 185.94 43.9757 193.577 30.1481C198.642 21.0636 208.45 8.52225 212.47 6.03003C215.927 3.93982 219.303 2.89468 221.956 3.05548L224.368 3.21628L224.127 13.989ZM240.929 38.7502C246.155 39.7953 255.641 51.9347 260.867 64.1545C265.047 73.9625 267.378 90.2019 268.102 115.767C268.745 135.785 268.745 135.946 271.639 145.754C275.096 157.33 275.418 163.36 273.086 170.354C271.318 175.258 268.986 179.68 268.022 179.68C267.7 179.68 267.057 178.152 266.575 176.223C263.198 162.958 261.912 160.064 256.123 153.15C249.772 145.513 248.245 142.699 247.28 136.75C246.396 131.122 247.441 125.495 250.817 117.857C256.365 105.236 256.365 94.3824 250.898 78.0625C241.894 51.0504 240.286 47.1915 235.945 41.9659L232.729 38.1874H235.462C236.99 38.1874 239.482 38.4286 240.929 38.7502ZM230.799 47.1111C233.613 50.568 235.141 53.7033 240.527 67.2094C243.019 73.5605 245.994 80.7959 247.2 83.2077C248.968 86.9862 249.29 88.6745 249.29 95.2667C249.29 101.939 248.968 103.386 247.119 107.004C242.698 115.445 234.498 120.51 225.011 120.51C221.876 120.591 218.821 120.189 218.419 119.787C217.856 119.224 218.258 117.536 219.946 114.561C221.876 111.024 222.278 109.094 222.358 104.914C222.358 100.412 222.037 99.206 219.946 96.0707C216.972 91.5686 216.891 89.1568 219.866 85.1372C223.564 79.9116 224.288 76.6958 223.966 65.5212C223.805 59.974 223.644 53.6229 223.725 51.2915C223.725 44.4581 226.941 42.5286 230.799 47.1111ZM310.791 117.696C317.222 121.555 321.966 129.193 327.191 144.226C330.728 154.275 331.372 157.974 332.899 176.786C334.266 193.588 335.472 203.074 336.517 205.808C336.919 206.772 338.607 209.667 340.295 212.239C341.984 214.731 343.993 217.867 344.797 219.153L346.325 221.484L343.591 221.002C342.144 220.68 338.044 219.555 334.507 218.429C324.779 215.455 318.268 216.259 304.199 222.369C298.491 224.861 294.632 225.343 293.346 223.655C291.898 221.886 291.336 212.561 291.014 184.905C290.693 150.899 291.657 123.726 293.426 120.43C296.561 114.32 303.395 113.275 310.791 117.696ZM148.718 175.901C147.673 178.715 149.924 178.876 178.222 178.072C193.417 177.67 208.37 177.107 211.425 176.946C217.856 176.464 219.464 177.107 220.67 180.645C223.162 187.719 231.201 243.351 231.764 257.34L232.247 267.952L222.278 268.434C211.585 268.997 163.832 270.203 122.268 271.087C102.572 271.489 95.4974 271.328 92.2012 270.524C88.1816 269.56 87.86 269.318 86.0109 265.379C83.6795 260.314 81.1873 248.657 76.0422 218.269C70.9774 188.603 70.2538 181.448 72.2637 179.841C73.8715 178.474 82.4736 177.429 99.3563 176.464C132.8 174.615 149.281 174.454 148.718 175.901ZM316.74 234.588C321.483 239.332 322.85 243.03 322.85 251.15C322.85 255.491 322.609 256.134 320.84 257.34C318.83 258.707 312.479 259.108 309.344 258.144C307.897 257.661 307.816 257.259 308.46 255.089C309.344 251.712 308.218 244.316 306.128 240.618C303.073 235.232 302.43 234.428 299.697 232.981L297.044 231.534L300.099 231.051C301.787 230.81 305.244 230.488 307.816 230.408C312.479 230.328 312.56 230.408 316.74 234.588ZM295.114 235.071C300.661 237.643 303.234 241.985 304.118 250.506C304.359 253.159 305.083 255.893 305.726 256.536C306.691 257.42 306.691 257.661 305.807 257.742C305.244 257.742 295.999 257.903 285.226 258.144C269.549 258.385 264.967 258.224 262.233 257.34C260.304 256.697 254.918 256.054 249.692 255.973L240.447 255.732L240.206 258.385L239.964 261.038L248.808 260.475C253.712 260.154 257.731 260.073 257.731 260.314C257.731 260.877 245.11 264.736 241.009 265.379L237.633 265.942L238.115 261.601C238.437 259.028 238.115 253.722 237.311 248.577C236.588 243.834 236.025 239.573 236.025 239.171C236.025 238.769 237.311 238.689 238.839 238.93C240.527 239.171 242.617 238.93 244.225 238.206C245.994 237.322 251.059 236.759 259.339 236.357C266.173 236.116 274.534 235.392 277.83 234.749C286.432 233.302 291.416 233.383 295.114 235.071ZM301.867 236.518C303.234 238.206 305.083 241.502 305.967 243.834C307.656 248.336 308.138 255.25 306.771 255.25C306.369 255.25 305.967 254.526 305.967 253.561C305.967 252.677 305.405 249.381 304.681 246.165C303.556 241.261 302.832 239.814 299.938 236.92C297.365 234.428 296.883 233.543 298.008 233.543C298.732 233.543 300.501 234.91 301.867 236.518ZM241.411 238.045C241.17 238.287 240.447 238.367 239.884 238.126C239.241 237.885 239.482 237.643 240.366 237.643C241.251 237.563 241.733 237.804 241.411 238.045ZM78.8559 264.495C78.8559 266.746 75.4794 267.63 61.5714 269.238C47.1809 270.926 30.0571 274.142 24.5904 276.232C21.7766 277.277 18.4805 277.76 13.5765 277.76C6.90383 277.76 6.66265 277.679 8.02934 276.313C12.8529 270.926 52.7281 262.405 71.6205 262.726C78.2932 262.887 78.8559 263.048 78.8559 264.495ZM318.83 264.897C319.715 265.46 319.152 266.022 316.258 267.309C309.183 270.444 281.93 273.579 256.123 274.222C237.07 274.785 233.613 274.303 233.613 271.489C233.613 270.042 234.819 269.962 254.757 269.479C279.116 268.836 291.818 267.871 303.154 265.781C312.238 264.012 317.062 263.771 318.83 264.897Z" fill="white"/>
</svg>
