<svg width="274" height="119" viewBox="0 0 274 119" fill="none" xmlns="http://www.w3.org/2000/svg">
<path d="M112.311 1.68972C100.41 2.07386 86.4796 2.6775 81.3243 3.00676C54.7804 4.87258 54.561 4.92747 53.519 7.23232C52.6415 9.15302 53.7932 20.8967 56.9741 42.0244C57.5774 46.0853 58.4549 51.9023 58.8936 54.9205C60.9776 69.1337 63.6101 80.8225 65.3651 83.5664C66.6813 85.5419 68.2169 86.3651 71.4526 86.5846C74.798 86.8041 94.3769 85.981 105.181 85.1029C110.446 84.6639 118.234 84.17 122.456 84.0054C126.679 83.8407 133.206 83.4566 136.99 83.1273C140.774 82.853 148.562 82.3591 154.265 82.0847C160.024 81.7554 167.373 81.1518 170.663 80.7127C176.586 79.9445 176.696 79.9445 177.464 81.0969C178.177 82.0847 178.67 82.1944 181.742 81.92C184.758 81.7005 185.306 81.8103 186.184 82.7981C187.171 83.8956 187.116 83.8956 185.8 83.5664C184.319 83.1822 171.76 83.8407 156.733 85.1029C151.468 85.5968 141.816 86.2005 135.345 86.4748C128.873 86.7492 121.579 87.1334 119.166 87.298C116.753 87.4626 108.472 87.8468 100.794 88.1212C85.273 88.7248 73.2076 89.8772 69.6976 91.1943C67.3394 92.0723 66.6813 93.3894 67.7781 95.0357C68.162 95.6393 73.7012 99.6454 74.1399 99.6454C74.3044 99.6454 77.7047 101.237 81.7082 103.157C105.62 114.627 104.687 114.352 117.137 112.322C123.663 111.279 131.506 110.127 141.926 108.81C146.697 108.206 148.123 108.206 150.097 108.81C154.21 110.017 162.437 109.523 190.9 106.45C195.343 105.956 201.924 105.353 205.434 105.133C208.944 104.914 215.854 104.365 220.735 103.981C227.535 103.432 229.894 103.432 230.99 103.926C232.416 104.584 232.91 106.395 231.868 107.054C230.881 107.657 211.521 109.578 193.204 110.895C186.568 111.389 176.97 112.102 171.815 112.541C166.715 112.98 160.298 113.474 157.556 113.639C146.971 114.298 129.147 115.615 119.989 116.438C104.742 117.755 103.536 117.7 97.9417 115.395C93.1704 113.365 82.5309 108.042 78.8564 105.792C77.8144 105.133 76.4433 104.365 75.84 104.036C74.3593 103.322 68.6008 99.6454 62.0196 95.2003C55.603 90.8101 55.2191 90.6455 51.6544 89.8224C46.2249 88.5053 43.1537 90.4809 34.9821 100.304C31.5819 104.365 28.3462 106.779 26.1524 106.779C21.3263 106.779 16.8292 102.17 13.3741 93.6089C9.42538 84.0054 8.43821 82.6334 5.09279 82.6334C3.83141 82.6334 2.35065 83.0176 1.74738 83.5115C0.76021 84.2798 0.76021 84.3346 1.69254 84.0603C6.95745 82.4139 7.99946 83.0725 10.8513 89.6577C14.6354 98.6576 15.8968 100.908 19.0777 104.09C22.3134 107.383 24.2329 108.096 27.688 107.328C29.7172 106.834 32.7884 104.365 35.366 101.017C36.2984 99.81 38.4921 97.2856 40.1922 95.4198C46.883 87.9565 50.722 88.2858 64.0488 97.3405C68.4363 100.304 74.8529 104.365 78.308 106.34C86.1505 110.895 98.8192 116.987 102 117.755C104.468 118.304 111.488 117.974 130.134 116.328C135.29 115.889 143.297 115.285 147.958 115.011C158.378 114.407 168.36 113.639 185.526 112.267C192.765 111.718 203.898 110.84 210.205 110.346C223.148 109.359 231.703 108.151 232.8 107.218C233.952 106.285 233.403 104.475 231.758 103.542C230.497 102.828 228.906 102.828 219.419 103.377C207.573 104.145 194.191 105.243 182.235 106.56C166.495 108.206 150.865 108.974 151.468 107.987C151.633 107.712 154.814 107.328 158.488 107.164C167.757 106.725 176.97 105.298 178.67 104.09C180.754 102.609 180.7 101.072 178.506 99.4258C177.025 98.2734 175.873 97.9442 172.034 97.6698C165.947 97.2308 153.552 98.2734 148.781 99.5905C143.461 101.072 142.474 102.664 144.942 105.572C146.532 107.493 146.313 107.877 143.352 107.877C142.145 107.877 137.922 108.371 134.028 108.974C125.363 110.292 116.917 111.499 110.83 112.267C104.852 113.09 104.029 112.816 90.0992 106.231C88.2894 105.353 84.6149 103.651 81.8727 102.389C72.8237 98.1637 67.9427 94.9808 67.8878 93.2796C67.833 91.6333 74.3044 90.426 86.4795 89.7675C91.7993 89.4382 100.19 88.9992 105.181 88.6699C110.172 88.3955 118.179 88.0114 123.005 87.8468C134.248 87.4626 155.527 86.1456 167.208 85.1029C172.199 84.6639 178.78 84.2798 181.851 84.2798H187.445L190.571 86.6944C192.326 88.0114 196.823 90.6455 200.607 92.5113C204.392 94.3772 207.956 96.1881 208.505 96.5174C209.108 96.7917 210.205 97.2308 210.973 97.4503C211.741 97.7247 214.483 98.6576 217.06 99.5905C223.916 102.06 227.48 101.731 224.793 98.8771C223.312 97.3405 216.293 93.7735 208.834 90.865C207.189 90.2614 205.324 89.4931 204.721 89.2187C202.417 88.1212 192.546 84.7188 190.571 84.2798C188.597 83.8956 186.348 82.4139 186.348 81.481C186.348 80.603 191.065 79.7798 194.575 80.0542C198.633 80.3286 201.101 81.481 205.105 85.1029C212.399 91.5235 216.512 91.4138 221.338 84.609C223.312 81.8652 223.641 81.2615 225.945 77.2006C227.59 74.2373 230.332 70.4507 231.594 69.3532C233.678 67.5422 237.133 68.6398 239.436 71.7678C239.82 72.2617 240.423 73.03 240.862 73.4141C241.246 73.7982 242.782 76.2677 244.208 78.7921C250.35 89.4931 252.763 92.1821 255.176 90.865C256.657 90.0967 258.96 86.6395 261.483 81.481C264.609 75.0604 267.296 73.1946 270.806 75.225C272.397 76.158 273 76.2128 273 75.5543C273 74.8409 269.929 73.8531 267.79 73.8531C265.103 73.8531 263.348 75.8836 260.167 82.3591C257.699 87.5175 255.56 90.3162 254.134 90.3162C252.379 90.3162 249.472 86.9139 246.456 81.2615C243.933 76.4872 241.52 72.8653 239.601 70.8349C234.884 65.7862 232.087 66.3898 227.426 73.469C224.025 78.6274 223.477 79.5603 222.38 81.8103C220.954 84.7188 217.664 88.0663 215.525 88.7248C213.825 89.2187 213.112 89.109 211.028 88.2309C209.657 87.6273 207.956 86.5846 207.189 85.8712C201.375 80.4384 198.085 79.0664 191.942 79.5055C189.584 79.6701 187.171 79.9445 186.513 80.164C185.416 80.4932 185.197 80.164 183.935 76.0482C183.167 73.6336 182.509 70.9446 182.509 70.1215C182.509 69.2983 182.125 66.1703 181.687 63.1521C181.248 60.1338 180.37 53.7132 179.767 48.884C177.519 31.049 176.97 27.3173 175.873 20.3479C174.009 8.65912 172.473 4.92747 168.799 3.06165C164.411 0.811684 151.359 0.482422 112.311 1.68972ZM164.85 2.78725C169.073 3.77504 170.608 4.76283 171.98 7.39693C173.57 10.4701 175.873 23.5308 178.396 44.4939C178.89 48.3901 179.658 53.9876 180.041 56.8412C180.48 59.6948 181.083 64.1399 181.358 66.7191C181.961 71.9873 183.167 77.475 184.1 79.2311C184.648 80.2737 184.539 80.4384 182.674 80.9323C179.987 81.7005 179.987 81.7005 178.396 80.6579C177.135 79.8347 177.135 79.7798 178.012 78.2433C178.835 76.8165 178.835 76.3226 177.957 71.8227C176.586 64.6886 175.051 56.1827 174.064 50.256C168.908 18.3724 168.305 15.4639 166.55 13.2688C164.082 10.1408 163.095 9.9213 149.055 9.75666C136.003 9.53716 100.684 10.3603 79.7339 11.2932C62.239 12.1164 61.5261 12.6651 61.6906 24.354C61.7454 28.4149 62.2939 35.3294 62.8971 39.7744C63.5004 44.1646 64.3779 50.6401 64.8715 54.0974C65.3651 57.5546 66.078 62.1094 66.5168 64.2496C66.9555 66.335 67.4491 69.0788 67.6685 70.2861C68.2169 73.9629 69.7525 78.353 70.5203 78.6823C71.7268 79.1213 73.427 76.6518 75.7852 71.1093C76.2239 70.0666 77.1014 67.9813 77.7047 66.4996C78.3628 65.0179 78.8564 63.5362 78.8564 63.207C78.8564 62.8777 79.2951 61.7253 79.8984 60.6826C80.4468 59.6399 81.1049 57.9388 81.2695 57.0058C81.4888 56.0181 81.9276 55.0851 82.2018 54.9205C82.476 54.701 82.6954 54.1522 82.6954 53.6583C82.7502 53.1644 83.189 51.7376 83.7923 50.5303C84.3955 49.323 84.8343 48.1158 84.8891 47.8962C84.8891 47.6219 85.2182 46.6341 85.6569 45.7012C86.0408 44.7134 86.8634 42.6829 87.5216 41.2012C90.6476 33.4636 91.7993 30.8843 94.3221 26.11C95.8028 23.2015 97.503 20.5674 98.1062 20.1833C99.0934 19.5248 99.1482 19.6894 99.1482 22.6528C99.1482 24.4088 97.8869 31.8721 96.3513 39.2805C91.4702 63.0972 91.196 69.7373 94.9802 68.5849C97.9417 67.7069 102.329 62.0545 112.585 45.8658C121.853 31.3234 121.524 31.7624 125.034 28.1405C128.215 24.793 129.531 24.8479 129.751 28.1954C129.915 30.5002 127.776 38.5671 125.473 44.2195C121.031 55.3046 118.892 61.835 118.892 64.4691C118.892 66.9386 119.659 67.4325 121.963 66.4447C123.389 65.8411 124.321 65.0179 128.325 60.6277C129.586 59.3107 133.315 53.7132 134.412 51.6279C135.235 50.0365 137.758 45.1524 139.567 41.75C141.651 37.8537 145.271 32.6953 146.532 31.8721C148.726 30.3904 151.194 30.9941 152.401 33.2441C154.32 36.8111 153.717 41.6403 149.768 54.3169C147.465 61.8899 147.026 64.524 148.013 64.524C148.452 64.524 151.359 61.835 154.539 58.5424C162.437 50.4206 165.069 48.884 166.824 51.4633C167.976 53.1096 167.921 56.7315 166.605 62.2192C166.002 64.7435 165.508 68.3654 165.508 70.2312C165.508 73.4141 165.673 73.7982 166.934 74.6763C167.976 75.3348 169.237 75.5543 171.705 75.3897L175.051 75.225L175.489 77.0909C175.764 78.0787 175.873 79.0116 175.764 79.1213C175.215 79.725 152.236 81.6457 137.812 82.3591C128.818 82.7981 105.455 84.2249 91.7445 85.1029C85.1085 85.5419 77.3756 85.9261 74.5238 85.9261C67.7233 85.9261 66.2974 85.1029 64.7618 80.3286C62.8971 74.6214 60.3744 61.1765 58.2903 45.8658C57.7968 42.4085 56.9193 36.2074 56.3708 32.1465C55.0546 23.0369 53.6287 10.964 53.6287 8.98838C53.6287 6.51891 55.4385 5.8055 64.1585 4.98235C68.4363 4.59821 75.4561 4.10431 79.679 3.93967C83.9019 3.72017 96.0222 3.22627 106.552 2.78725C139.951 1.30557 158.378 1.30557 164.85 2.78725ZM164.027 12.0066C166.989 13.9273 167.537 15.7383 170.389 32.9697C171.047 36.866 172.034 42.7927 172.638 46.1402C173.186 49.4328 174.064 54.7559 174.557 57.9388C175.106 61.1216 175.983 65.9508 176.586 68.6398C177.19 71.3836 177.573 74.6763 177.464 76.0482L177.299 78.5177L176.257 76.4323L175.16 74.4019H171.157C165.618 74.4019 165.453 74.0177 167.044 64.3594C168.853 53.6583 168.579 50.6401 165.782 49.9267C163.369 49.3231 161.121 50.8047 154.759 57.3351C151.304 60.7924 148.397 63.5362 148.287 63.3716C148.013 63.0972 150.371 54.701 152.455 48.6096C153.443 45.756 153.662 43.7805 153.717 38.8415V32.5855L152.072 31.2685C151.194 30.5551 149.933 29.9514 149.329 29.9514C146.697 29.9514 142.639 34.177 139.567 40.1037C136.057 46.9633 135.125 48.6645 133.644 51.3535C131.725 54.7559 126.021 62.8777 125.528 62.8777C125.363 62.8777 124.376 63.646 123.334 64.524C120.208 67.3227 119.056 66.5545 119.934 62.3289C120.482 59.5851 123.992 49.3231 125.144 47.0182C125.528 46.2499 126.789 42.8475 127.941 39.5549C129.641 34.7257 130.08 32.6953 130.08 29.4027L130.134 25.2869L128.544 25.1222C127.283 24.9576 126.515 25.4515 124.157 27.8661C121.743 30.3904 116.698 37.1952 116.698 37.9086C116.698 38.0732 115.875 39.3903 114.943 40.8171C112.64 44.1646 111.981 45.2073 110.885 47.2377C107.923 52.5608 101.177 61.9997 98.2159 65.0179C95.3092 67.9264 94.5963 68.3654 93.9382 67.8166C92.2381 66.3898 92.7865 61.0668 96.5158 43.1219C99.1482 30.2258 100.41 21.9943 100.026 20.4577C99.5321 18.4821 97.8868 18.537 96.4609 20.5674C94.8705 22.7625 90.2637 32.1465 88.4539 36.8111C86.6441 41.4208 85.7117 43.7256 84.2858 46.8536C83.7374 48.1158 83.2438 49.4328 83.2438 49.7621C83.2438 50.0913 82.9148 51.134 82.476 52.0669C82.0373 53.0547 81.0501 55.5242 80.2275 57.6644C79.4597 59.7497 78.5822 61.9997 78.308 62.6033C78.0338 63.207 77.0466 65.6764 76.1143 68.091C74.0302 73.5239 71.2881 78.4079 70.63 77.9689C68.5459 76.6518 62.4035 35.0001 62.4035 22.2686C62.4035 14.4761 63.5004 13.4883 73.9205 12.3359C80.4468 11.6225 118.508 10.8542 143.571 10.964C160.682 11.0188 162.711 11.1286 164.027 12.0066ZM193.204 85.8712C196.439 86.859 199.236 87.9017 209.108 91.8528C215.58 94.432 223.258 98.2185 224.135 99.3161C224.793 100.084 224.629 100.194 222.599 100.194C220.515 100.194 218.267 99.4807 212.783 97.121C211.795 96.682 210.753 96.3527 210.479 96.3527C208.724 96.3527 189.639 86.0358 189.639 85.1029C189.639 84.7188 189.474 84.7188 193.204 85.8712ZM173.515 98.6027C177.519 99.3161 179.219 100.359 179.219 102.115C179.219 104.2 176.367 104.804 157.336 106.505L147.794 107.383L146.258 105.901C142.748 102.554 144.887 100.523 152.785 99.5905C155.417 99.2612 159.146 98.8222 161.121 98.6027C166.44 97.9442 169.895 97.9442 173.515 98.6027Z" fill="white" stroke="white" stroke-width="1.05"/>
</svg>
